<svg width="258" height="200" viewBox="0 0 258 200" fill="none" xmlns="http://www.w3.org/2000/svg">
<path d="M46.7757 199.006V185.769C46.7757 180.693 43.6863 177.385 38.3908 177.385C35.7435 177.385 32.8752 178.267 30.8893 181.136C29.3456 178.709 27.1395 177.385 23.83 177.385C21.6229 177.385 19.4179 178.046 17.6521 180.473V177.826H13.0189V199.006H17.6521V187.313C17.6521 183.563 19.638 181.797 22.7275 181.797C25.8149 181.797 27.3606 183.783 27.3606 187.313V199.006H31.9938V187.313C31.9938 183.563 34.1988 181.797 37.0672 181.797C40.1566 181.797 41.7003 183.783 41.7003 187.313V199.006H46.7757V199.006ZM115.39 177.826H107.889V171.428H103.256V177.826H99.0642V182.017H103.255V191.726C103.255 196.58 105.241 199.447 110.537 199.447C112.522 199.447 114.727 198.786 116.273 197.904L114.949 193.932C113.625 194.814 112.081 195.035 110.978 195.035C108.772 195.035 107.889 193.712 107.889 191.505V182.017H115.39V177.826V177.826ZM154.662 177.384C152.015 177.384 150.25 178.709 149.147 180.473V177.826H144.513V199.006H149.147V187.092C149.147 183.563 150.69 181.577 153.559 181.577C154.441 181.577 155.545 181.798 156.427 182.018L157.751 177.606C156.868 177.385 155.545 177.385 154.662 177.385V177.384ZM95.3134 179.591C93.1064 178.046 90.0179 177.385 86.7084 177.385C81.4139 177.385 77.8842 180.032 77.8842 184.224C77.8842 187.755 80.5315 189.74 85.1647 190.402L87.3707 190.623C89.7978 191.063 91.1214 191.726 91.1214 192.829C91.1214 194.373 89.3566 195.476 86.2672 195.476C83.1787 195.476 80.7516 194.373 79.2069 193.27L77.0008 196.8C79.428 198.565 82.7375 199.447 86.0461 199.447C92.224 199.447 95.7546 196.58 95.7546 192.608C95.7546 188.857 92.8863 186.871 88.4732 186.21L86.2672 185.989C84.2812 185.768 82.7375 185.328 82.7375 184.004C82.7375 182.459 84.2812 181.577 86.7084 181.577C89.3566 181.577 92.0038 182.679 93.3275 183.342L95.3134 179.591V179.591ZM218.424 177.385C215.776 177.385 214.011 178.709 212.907 180.473V177.826H208.274V199.006H212.907V187.092C212.907 183.563 214.452 181.577 217.319 181.577C218.203 181.577 219.306 181.798 220.189 182.018L221.512 177.606C220.63 177.385 219.306 177.385 218.424 177.385V177.385ZM159.295 188.416C159.295 194.814 163.707 199.447 170.548 199.447C173.636 199.447 175.842 198.786 178.048 197.021L175.842 193.27C174.077 194.594 172.312 195.255 170.326 195.255C166.576 195.255 163.928 192.608 163.928 188.416C163.928 184.445 166.576 181.797 170.326 181.577C172.312 181.577 174.077 182.238 175.842 183.563L178.048 179.812C175.842 178.046 173.636 177.385 170.548 177.385C163.707 177.385 159.295 182.018 159.295 188.416ZM202.097 188.416V177.826H197.464V180.473C195.919 178.488 193.713 177.385 190.845 177.385C184.888 177.385 180.255 182.018 180.255 188.416C180.255 194.814 184.888 199.447 190.845 199.447C193.934 199.447 196.141 198.345 197.464 196.359V199.006H202.097V188.416V188.416ZM185.108 188.416C185.108 184.665 187.536 181.577 191.506 181.577C195.257 181.577 197.905 184.445 197.905 188.416C197.905 192.167 195.257 195.255 191.506 195.255C187.536 195.034 185.108 192.167 185.108 188.416V188.416ZM129.731 177.385C123.554 177.385 119.141 181.797 119.141 188.416C119.141 195.035 123.553 199.447 129.952 199.447C133.04 199.447 136.129 198.565 138.557 196.58L136.35 193.27C134.585 194.594 132.379 195.476 130.173 195.476C127.304 195.476 124.436 194.153 123.774 190.401H139.439V188.637C139.66 181.797 135.688 177.385 129.73 177.385H129.731ZM129.731 181.356C132.599 181.356 134.586 183.122 135.026 186.431H123.995C124.436 183.563 126.422 181.356 129.731 181.356ZM244.678 188.416V169.442H240.045V180.473C238.5 178.488 236.294 177.385 233.426 177.385C227.469 177.385 222.836 182.018 222.836 188.416C222.836 194.814 227.469 199.447 233.426 199.447C236.515 199.447 238.721 198.345 240.045 196.359V199.006H244.678V188.416V188.416ZM227.69 188.416C227.69 184.665 230.116 181.577 234.088 181.577C237.839 181.577 240.486 184.445 240.486 188.416C240.486 192.167 237.839 195.255 234.088 195.255C230.116 195.034 227.69 192.167 227.69 188.416V188.416ZM72.8089 188.416V177.826H68.1757V180.473C66.631 178.488 64.425 177.385 61.5566 177.385C55.5998 177.385 50.9667 182.018 50.9667 188.416C50.9667 194.814 55.5998 199.447 61.5566 199.447C64.6461 199.447 66.8521 198.345 68.1757 196.359V199.006H72.8089V188.416V188.416ZM55.5998 188.416C55.5998 184.665 58.027 181.577 61.9978 181.577C65.7486 181.577 68.3968 184.445 68.3968 188.416C68.3968 192.167 65.7486 195.255 61.9978 195.255C58.027 195.034 55.5998 192.167 55.5998 188.416V188.416Z" fill="black"/>
<path d="M93.7686 16.9879H163.266V141.863H93.7686V16.9879Z" fill="#FF5F00"/>
<path d="M98.1817 79.4261C98.1817 54.0543 110.095 31.5497 128.407 16.9879C114.95 6.39799 97.9616 0 79.429 0C35.5224 0 0.00183105 35.5206 0.00183105 79.4261C0.00183105 123.331 35.5224 158.852 79.428 158.852C97.9606 158.852 114.949 152.454 128.407 141.863C110.095 127.523 98.1817 104.798 98.1817 79.4261V79.4261Z" fill="#EB001B"/>
<path d="M257.033 79.4261C257.033 123.331 221.512 158.852 177.607 158.852C159.074 158.852 142.086 152.454 128.628 141.863C147.161 127.303 158.854 104.798 158.854 79.4261C158.854 54.0543 146.939 31.5497 128.628 16.9879C142.085 6.39799 159.074 0 177.607 0C221.512 0 257.034 35.7417 257.034 79.4261H257.033Z" fill="#F79E1B"/>
</svg>
