<svg width="325" height="281" viewBox="0 0 325 281" fill="none" xmlns="http://www.w3.org/2000/svg">
<g opacity="0.1">
<g opacity="0.1">
<mask id="path-1-inside-1_3_169" fill="white">
<path d="M323.975 273.394C323.975 277.03 321.027 279.978 317.391 279.978H316.352"/>
</mask>
<path d="M317.391 278.978H316.352V280.978H317.391V278.978ZM322.975 273.394C322.975 276.478 320.475 278.978 317.391 278.978V280.978C321.579 280.978 324.975 277.583 324.975 273.394H322.975Z" fill="#20263C" mask="url(#path-1-inside-1_3_169)"/>
</g>
<g opacity="0.1">
<mask id="path-3-inside-2_3_169" fill="white">
<path d="M301.693 279.978H15.9394H301.693Z"/>
</mask>
<path d="M15.9394 280.478H18.7969V279.478H15.9394V280.478ZM24.512 280.478H30.2271V279.478H24.512V280.478ZM35.9421 280.478H41.6572V279.478H35.9421V280.478ZM47.3722 280.478H53.0873V279.478H47.3722V280.478ZM58.8024 280.478H64.5174V279.478H58.8024V280.478ZM70.2325 280.478H75.9476V279.478H70.2325V280.478ZM81.6626 280.478H87.3777V279.478H81.6626V280.478ZM93.0928 280.478H98.8078V279.478H93.0928V280.478ZM104.523 280.478H110.238V279.478H104.523V280.478ZM115.953 280.478H121.668V279.478H115.953V280.478ZM127.383 280.478H133.098V279.478H127.383V280.478ZM138.813 280.478H144.528V279.478H138.813V280.478ZM150.243 280.478H155.958V279.478H150.243V280.478ZM161.674 280.478H167.389V279.478H161.674V280.478ZM173.104 280.478H178.819V279.478H173.104V280.478ZM184.534 280.478H190.249V279.478H184.534V280.478ZM195.964 280.478H201.679V279.478H195.964V280.478ZM207.394 280.478H213.109V279.478H207.394V280.478ZM218.824 280.478H224.539V279.478H218.824V280.478ZM230.254 280.478H235.969V279.478H230.254V280.478ZM241.684 280.478H247.399V279.478H241.684V280.478ZM253.114 280.478H258.829V279.478H253.114V280.478ZM264.545 280.478H270.26V279.478H264.545V280.478ZM275.975 280.478H281.69V279.478H275.975V280.478ZM287.405 280.478H293.12V279.478H287.405V280.478ZM298.835 280.478H301.693V279.478H298.835V280.478ZM15.9394 280.978H18.7969V278.978H15.9394V280.978ZM24.512 280.978H30.2271V278.978H24.512V280.978ZM35.9421 280.978H41.6572V278.978H35.9421V280.978ZM47.3722 280.978H53.0873V278.978H47.3722V280.978ZM58.8024 280.978H64.5174V278.978H58.8024V280.978ZM70.2325 280.978H75.9476V278.978H70.2325V280.978ZM81.6626 280.978H87.3777V278.978H81.6626V280.978ZM93.0928 280.978H98.8078V278.978H93.0928V280.978ZM104.523 280.978H110.238V278.978H104.523V280.978ZM115.953 280.978H121.668V278.978H115.953V280.978ZM127.383 280.978H133.098V278.978H127.383V280.978ZM138.813 280.978H144.528V278.978H138.813V280.978ZM150.243 280.978H155.958V278.978H150.243V280.978ZM161.674 280.978H167.389V278.978H161.674V280.978ZM173.104 280.978H178.819V278.978H173.104V280.978ZM184.534 280.978H190.249V278.978H184.534V280.978ZM195.964 280.978H201.679V278.978H195.964V280.978ZM207.394 280.978H213.109V278.978H207.394V280.978ZM218.824 280.978H224.539V278.978H218.824V280.978ZM230.254 280.978H235.969V278.978H230.254V280.978ZM241.684 280.978H247.399V278.978H241.684V280.978ZM253.114 280.978H258.829V278.978H253.114V280.978ZM264.545 280.978H270.26V278.978H264.545V280.978ZM275.975 280.978H281.69V278.978H275.975V280.978ZM287.405 280.978H293.12V278.978H287.405V280.978ZM298.835 280.978H301.693V278.978H298.835V280.978Z" fill="#20263C" mask="url(#path-3-inside-2_3_169)"/>
</g>
<g opacity="0.1">
<mask id="path-5-inside-3_3_169" fill="white">
<path d="M8.62212 279.978H7.5838C3.94767 279.978 1 277.03 1 273.394"/>
</mask>
<path d="M8.62212 278.978H7.5838V280.978H8.62212V278.978ZM7.5838 278.978C4.49995 278.978 2 276.478 2 273.394H0C0 277.583 3.39538 280.978 7.5838 280.978V278.978Z" fill="#20263C" mask="url(#path-5-inside-3_3_169)"/>
</g>
<g opacity="0.1">
<mask id="path-7-inside-4_3_169" fill="white">
<path d="M1 260.731V13.9043V260.731Z"/>
</mask>
<path d="M0.5 13.9043V16.8427H1.5V13.9043H0.5ZM0.5 22.7195V28.5964H1.5V22.7195H0.5ZM0.5 34.4732V40.35H1.5V34.4732H0.5ZM0.5 46.2269V52.1037H1.5V46.2269H0.5ZM0.5 57.9805V63.8574H1.5V57.9805H0.5ZM0.5 69.7342V75.611H1.5V69.7342H0.5ZM0.5 81.4879V87.3647H1.5V81.4879H0.5ZM0.5 93.2415V99.1184H1.5V93.2415H0.5ZM0.5 104.995V110.872H1.5V104.995H0.5ZM0.5 116.749V122.626H1.5V116.749H0.5ZM0.5 128.503V134.379H1.5V128.503H0.5ZM0.5 140.256V146.133H1.5V140.256H0.5ZM0.5 152.01V157.887H1.5V152.01H0.5ZM0.5 163.764V169.64H1.5V163.764H0.5ZM0.5 175.517V181.394H1.5V175.517H0.5ZM0.5 187.271V193.148H1.5V187.271H0.5ZM0.5 199.025V204.901H1.5V199.025H0.5ZM0.5 210.778V216.655H1.5V210.778H0.5ZM0.5 222.532V228.409H1.5V222.532H0.5ZM0.5 234.285V240.162H1.5V234.285H0.5ZM0.5 246.039V251.916H1.5V246.039H0.5ZM0.5 257.793V260.731H1.5V257.793H0.5ZM0 13.9043V16.8427H2V13.9043H0ZM0 22.7195V28.5964H2V22.7195H0ZM0 34.4732V40.35H2V34.4732H0ZM0 46.2269V52.1037H2V46.2269H0ZM0 57.9805V63.8574H2V57.9805H0ZM0 69.7342V75.611H2V69.7342H0ZM0 81.4879V87.3647H2V81.4879H0ZM0 93.2415V99.1184H2V93.2415H0ZM0 104.995V110.872H2V104.995H0ZM0 116.749V122.626H2V116.749H0ZM0 128.503V134.379H2V128.503H0ZM0 140.256V146.133H2V140.256H0ZM0 152.01V157.887H2V152.01H0ZM0 163.764V169.64H2V163.764H0ZM0 175.517V181.394H2V175.517H0ZM0 187.271V193.148H2V187.271H0ZM0 199.025V204.901H2V199.025H0ZM0 210.778V216.655H2V210.778H0ZM0 222.532V228.409H2V222.532H0ZM0 234.285V240.162H2V234.285H0ZM0 246.039V251.916H2V246.039H0ZM0 257.793V260.731H2V257.793H0Z" fill="#20263C" mask="url(#path-7-inside-4_3_169)"/>
</g>
<g opacity="0.1">
<mask id="path-9-inside-5_3_169" fill="white">
<path d="M1 7.58381C1 3.94767 3.94767 1 7.58381 1H8.62212"/>
</mask>
<path d="M7.58381 2H8.62212V0H7.58381V2ZM2 7.58381C2 4.49996 4.49996 2 7.58381 2V0C3.39539 0 0 3.39539 0 7.58381H2Z" fill="#20263C" mask="url(#path-9-inside-5_3_169)"/>
</g>
<g opacity="0.1">
<mask id="path-11-inside-6_3_169" fill="white">
<path d="M23.2566 1H309.035H23.2566Z"/>
</mask>
<path d="M23.2566 1.5H26.1144V0.5H23.2566V1.5ZM31.83 1.5H37.5456V0.5H31.83V1.5ZM43.2611 1.5H48.9767V0.5H43.2611V1.5ZM54.6923 1.5H60.4078V0.5H54.6923V1.5ZM66.1234 1.5H71.839V0.5H66.1234V1.5ZM77.5546 1.5H83.2701V0.5H77.5546V1.5ZM88.9857 1.5H94.7013V0.5H88.9857V1.5ZM100.417 1.5H106.132V0.5H100.417V1.5ZM111.848 1.5H117.564V0.5H111.848V1.5ZM123.279 1.5H128.995V0.5H123.279V1.5ZM134.71 1.5H140.426V0.5H134.71V1.5ZM146.141 1.5H151.857V0.5H146.141V1.5ZM157.573 1.5H163.288V0.5H157.573V1.5ZM169.004 1.5H174.719V0.5H169.004V1.5ZM180.435 1.5H186.15V0.5H180.435V1.5ZM191.866 1.5H197.582V0.5H191.866V1.5ZM203.297 1.5H209.013V0.5H203.297V1.5ZM214.728 1.5H220.444V0.5H214.728V1.5ZM226.16 1.5H231.875V0.5H226.16V1.5ZM237.591 1.5H243.306V0.5H237.591V1.5ZM249.022 1.5H254.737V0.5H249.022V1.5ZM260.453 1.5H266.169V0.5H260.453V1.5ZM271.884 1.5H277.6V0.5H271.884V1.5ZM283.315 1.5H289.031V0.5H283.315V1.5ZM294.746 1.5H300.462V0.5H294.746V1.5ZM306.178 1.5H309.035V0.5H306.178V1.5ZM23.2566 2H26.1144V0H23.2566V2ZM31.83 2H37.5456V0H31.83V2ZM43.2611 2H48.9767V0H43.2611V2ZM54.6923 2H60.4078V0H54.6923V2ZM66.1234 2H71.839V0H66.1234V2ZM77.5546 2H83.2701V0H77.5546V2ZM88.9857 2H94.7013V0H88.9857V2ZM100.417 2H106.132V0H100.417V2ZM111.848 2H117.564V0H111.848V2ZM123.279 2H128.995V0H123.279V2ZM134.71 2H140.426V0H134.71V2ZM146.141 2H151.857V0H146.141V2ZM157.573 2H163.288V0H157.573V2ZM169.004 2H174.719V0H169.004V2ZM180.435 2H186.15V0H180.435V2ZM191.866 2H197.582V0H191.866V2ZM203.297 2H209.013V0H203.297V2ZM214.728 2H220.444V0H214.728V2ZM226.16 2H231.875V0H226.16V2ZM237.591 2H243.306V0H237.591V2ZM249.022 2H254.737V0H249.022V2ZM260.453 2H266.169V0H260.453V2ZM271.884 2H277.6V0H271.884V2ZM283.315 2H289.031V0H283.315V2ZM294.746 2H300.462V0H294.746V2ZM306.178 2H309.035V0H306.178V2Z" fill="#20263C" mask="url(#path-11-inside-6_3_169)"/>
</g>
<g opacity="0.1">
<mask id="path-13-inside-7_3_169" fill="white">
<path d="M316.352 1H317.391C321.027 1 323.975 3.94767 323.975 7.58381"/>
</mask>
<path d="M316.352 2H317.391V0H316.352V2ZM317.391 2C320.475 2 322.975 4.49996 322.975 7.58381H324.975C324.975 3.39539 321.579 0 317.391 0V2Z" fill="#20263C" mask="url(#path-13-inside-7_3_169)"/>
</g>
<g opacity="0.1">
<mask id="path-15-inside-8_3_169" fill="white">
<path d="M323.975 20.2248V267.074V20.2248Z"/>
</mask>
<path d="M323.475 20.2248V23.1634H324.475V20.2248H323.475ZM323.475 29.0408V34.9182H324.475V29.0408H323.475ZM323.475 40.7955V46.6729H324.475V40.7955H323.475ZM323.475 52.5502V58.4276H324.475V52.5502H323.475ZM323.475 64.3049V70.1823H324.475V64.3049H323.475ZM323.475 76.0597V81.937H324.475V76.0597H323.475ZM323.475 87.8144V93.6917H324.475V87.8144H323.475ZM323.475 99.5691V105.446H324.475V99.5691H323.475ZM323.475 111.324V117.201H324.475V111.324H323.475ZM323.475 123.079V128.956H324.475V123.079H323.475ZM323.475 134.833V140.711H324.475V134.833H323.475ZM323.475 146.588V152.465H324.475V146.588H323.475ZM323.475 158.343V164.22H324.475V158.343H323.475ZM323.475 170.097V175.975H324.475V170.097H323.475ZM323.475 181.852V187.73H324.475V181.852H323.475ZM323.475 193.607V199.484H324.475V193.607H323.475ZM323.475 205.362V211.239H324.475V205.362H323.475ZM323.475 217.116V222.994H324.475V217.116H323.475ZM323.475 228.871V234.748H324.475V228.871H323.475ZM323.475 240.626V246.503H324.475V240.626H323.475ZM323.475 252.381V258.258H324.475V252.381H323.475ZM323.475 264.135V267.074H324.475V264.135H323.475ZM322.975 20.2248V23.1634H324.975V20.2248H322.975ZM322.975 29.0408V34.9182H324.975V29.0408H322.975ZM322.975 40.7955V46.6729H324.975V40.7955H322.975ZM322.975 52.5502V58.4276H324.975V52.5502H322.975ZM322.975 64.3049V70.1823H324.975V64.3049H322.975ZM322.975 76.0597V81.937H324.975V76.0597H322.975ZM322.975 87.8144V93.6917H324.975V87.8144H322.975ZM322.975 99.5691V105.446H324.975V99.5691H322.975ZM322.975 111.324V117.201H324.975V111.324H322.975ZM322.975 123.079V128.956H324.975V123.079H322.975ZM322.975 134.833V140.711H324.975V134.833H322.975ZM322.975 146.588V152.465H324.975V146.588H322.975ZM322.975 158.343V164.22H324.975V158.343H322.975ZM322.975 170.097V175.975H324.975V170.097H322.975ZM322.975 181.852V187.73H324.975V181.852H322.975ZM322.975 193.607V199.484H324.975V193.607H322.975ZM322.975 205.362V211.239H324.975V205.362H322.975ZM322.975 217.116V222.994H324.975V217.116H322.975ZM322.975 228.871V234.748H324.975V228.871H322.975ZM322.975 240.626V246.503H324.975V240.626H322.975ZM322.975 252.381V258.258H324.975V252.381H322.975ZM322.975 264.135V267.074H324.975V264.135H322.975Z" fill="#20263C" mask="url(#path-15-inside-8_3_169)"/>
</g>
</g>
<path d="M212.279 99.7616C218.531 96.6458 225.884 96.647 232.134 99.765L240.052 103.714C241.311 104.342 242.791 104.343 244.051 103.716C247.365 102.068 247.369 97.3405 244.056 95.6875L228.162 87.7557C224.413 85.8847 220.002 85.8849 216.253 87.7561L180.273 105.714C176.972 107.362 176.971 112.071 180.27 113.72C181.528 114.349 183.008 114.35 184.267 113.722L212.279 99.7616Z" fill="#414042"/>
<path d="M204.122 109.705C202.863 109.079 201.383 109.08 200.125 109.708L172.131 123.668C165.883 126.784 158.534 126.783 152.286 123.667L144.364 119.715C143.105 119.088 141.625 119.088 140.367 119.715C137.06 121.364 137.06 126.081 140.366 127.73L156.259 135.657C160.005 137.525 164.411 137.525 168.158 135.658L204.125 117.731C207.438 116.08 207.436 111.353 204.122 109.705Z" fill="#414042"/>
<path d="M88.2862 104.306C88.2862 102.404 87.21 100.665 85.5073 99.8156C82.1712 98.1523 78.2504 100.579 78.2504 104.306V117.751C78.2504 122.806 81.1084 127.427 85.6316 129.684L121.724 147.698C124.701 149.184 128.201 147.019 128.201 143.692C128.201 141.996 127.241 140.445 125.723 139.687L97.139 125.416C91.7139 122.708 88.2862 117.165 88.2862 111.102V104.306Z" fill="#414042"/>
<path d="M110.25 124.419C110.25 126.117 111.211 127.668 112.73 128.426L141.299 142.673C146.732 145.382 150.165 150.931 150.165 157.001V163.791C150.165 165.69 151.237 167.427 152.936 168.278C156.272 169.948 160.201 167.522 160.201 163.791V150.337C160.201 145.284 157.343 140.666 152.821 138.411L116.727 120.412C113.749 118.927 110.25 121.092 110.25 124.419Z" fill="#414042"/>
<path d="M190.638 138.433C192.158 137.676 193.119 136.123 193.119 134.425C193.119 131.098 189.621 128.933 186.644 130.417L171.499 137.963C166.423 140.493 163.215 145.675 163.215 151.346V183.822C163.215 187.549 167.136 189.976 170.472 188.312C172.175 187.463 173.251 185.724 173.251 183.822V158.193C173.251 151.393 177.098 145.178 183.185 142.146L190.638 138.433Z" fill="#414042"/>
<path d="M179.92 169.798C178.211 170.648 177.13 172.393 177.13 174.302V199.904C177.13 206.702 173.289 212.916 167.208 215.956L159.762 219.678C158.245 220.436 157.287 221.987 157.287 223.683C157.287 227.011 160.787 229.176 163.764 227.69L178.915 220.129C183.986 217.599 187.191 212.418 187.191 206.751V174.302C187.191 170.567 183.264 168.135 179.92 169.798Z" fill="#414042"/>
</svg>
