<svg width="773" height="153" viewBox="0 0 773 153" fill="none" xmlns="http://www.w3.org/2000/svg">
<path d="M28.7722 30.3671C26.6248 32.5969 24.6422 34.9794 22.8401 37.4965C22.7142 37.6751 22.5879 37.8456 22.462 38.0242C16.9021 45.9562 13.2336 55.0562 11.7385 64.6265L93.6046 50.1913C96.3488 49.7073 99.1615 49.7686 101.882 50.3716C104.602 50.9747 107.178 52.1076 109.46 53.706C111.743 55.3042 113.689 57.3365 115.185 59.6867C116.682 62.037 117.702 64.6591 118.186 67.4032L120.382 79.8601L137.715 76.8039C137.875 72.3049 137.562 67.8015 136.781 63.368C134.752 51.8555 129.578 41.1284 121.832 32.3732C114.086 23.6179 104.069 17.1766 92.8894 13.761C81.7096 10.3454 69.8029 10.0891 58.4864 13.0198C47.1698 15.9504 36.8845 21.9546 28.7683 30.3678L28.7722 30.3671Z" fill="#0064AF"/>
<path d="M11.9672 85.376C13.9981 96.8877 19.1733 107.613 26.9204 116.367C34.6675 125.121 44.6846 131.561 55.8641 134.977C67.0436 138.392 78.9499 138.649 90.2662 135.718C101.583 132.788 111.868 126.786 119.985 118.374C122.131 116.141 124.113 113.755 125.915 111.236C126.037 111.063 126.159 110.893 126.291 110.719C131.85 102.788 135.52 93.6907 137.019 84.1229L55.1454 98.5595C49.6031 99.5343 43.9005 98.2682 39.2915 95.0395C34.6825 91.8107 31.5444 86.8837 30.5672 81.3418L28.3708 68.885L11.0381 71.9412C10.874 76.4397 11.1854 80.9429 11.9672 85.376Z" fill="#003572"/>
<g style="mix-blend-mode:darken">
<path d="M200.56 122.536C204.613 122.536 206.64 124.563 206.64 128.616V130.288C206.64 134.341 204.613 136.368 200.56 136.368H161.952C159.013 136.368 156.531 135.304 154.504 133.176L149.64 128.312C147.613 126.285 146.6 123.803 146.6 120.864V33.16C146.6 29.1067 148.627 27.08 152.68 27.08H154.352C158.405 27.08 160.432 29.1067 160.432 33.16V116.456C160.432 120.509 162.459 122.536 166.512 122.536H200.56ZM217.333 27.232C220.576 27.232 223.008 28.6507 224.629 31.488L242.109 61.736C243.731 64.5733 244.845 65.992 245.453 65.992C246.163 65.992 247.277 64.5733 248.797 61.736L265.973 31.488C267.493 28.6507 269.925 27.232 273.269 27.232H274.181C275.803 27.232 277.069 27.6373 277.981 28.448C278.995 29.1573 279.501 30.0693 279.501 31.184C279.501 32.2987 279.147 33.4133 278.437 34.528L254.421 76.328C253.104 78.6587 252.445 81.192 252.445 83.928V130.44C252.445 134.493 250.419 136.52 246.365 136.52H244.693C240.64 136.52 238.613 134.493 238.613 130.44V83.928C238.613 81.192 237.955 78.6587 236.637 76.328L212.317 34.528C211.608 33.4133 211.253 32.248 211.253 31.032C211.253 29.9173 211.709 29.0053 212.621 28.296C213.533 27.5867 214.8 27.232 216.421 27.232H217.333ZM335.394 121.624C334.279 125.069 331.999 126.792 328.554 126.792H322.625C318.978 126.792 316.647 125.12 315.634 121.776L306.058 91.376C305.652 90.2613 305.095 89.4 304.386 88.792C303.778 88.184 303.119 87.88 302.41 87.88C301.498 87.88 300.738 88.2853 300.13 89.096C299.522 89.9067 299.218 91.0213 299.218 92.44V130.136C299.218 134.189 297.191 136.216 293.138 136.216H291.618C287.564 136.216 285.538 134.189 285.538 130.136V33.312C285.538 29.2587 287.564 27.232 291.618 27.232H293.898C297.444 27.232 299.724 28.904 300.738 32.248L321.41 98.368C321.815 99.7867 322.372 100.851 323.082 101.56C323.791 102.269 324.5 102.624 325.21 102.624C326.02 102.624 326.78 102.269 327.49 101.56C328.199 100.749 328.756 99.6347 329.162 98.216L348.618 32.4C349.732 28.9547 352.012 27.232 355.458 27.232H358.042C362.095 27.232 364.122 29.2587 364.122 33.312V130.136C364.122 134.189 362.095 136.216 358.042 136.216H356.522C352.468 136.216 350.442 134.189 350.442 130.136V94.112C350.442 92.6933 350.138 91.6293 349.53 90.92C348.922 90.1093 348.162 89.704 347.25 89.704C345.628 89.704 344.463 90.8187 343.754 93.048L335.394 121.624ZM436.502 35.288C438.529 37.416 439.542 39.9493 439.542 42.888V83.624C439.542 86.5627 438.529 89.096 436.502 91.224L431.638 96.088C429.611 98.1147 427.129 99.128 424.19 99.128H399.262C395.209 99.128 393.182 101.155 393.182 105.208V130.44C393.182 134.493 391.155 136.52 387.102 136.52H385.43C381.377 136.52 379.35 134.493 379.35 130.44V33.464C379.35 29.4107 381.377 27.384 385.43 27.384H424.19C427.129 27.384 429.611 28.3973 431.638 30.424L436.502 35.288ZM425.862 47.296C425.862 43.2427 423.835 41.216 419.782 41.216H399.414C395.361 41.216 393.334 43.2427 393.334 47.296V79.216C393.334 83.2693 395.361 85.296 399.414 85.296H419.63C423.683 85.296 425.71 83.2693 425.71 79.216L425.862 47.296ZM448.712 128.616C448.712 126.691 449.168 125.221 450.08 124.208C450.992 123.093 452.309 122.536 454.032 122.536C455.755 122.536 457.072 122.029 457.984 121.016C458.896 119.901 459.352 118.381 459.352 116.456V46.992C459.352 45.0667 458.896 43.5973 457.984 42.584C457.072 41.4693 455.755 40.912 454.032 40.912C452.309 40.912 450.992 40.4053 450.08 39.392C449.168 38.2773 448.712 36.7573 448.712 34.832V33.16C448.712 29.1067 450.739 27.08 454.792 27.08H477.896C481.949 27.08 483.976 29.1067 483.976 33.16V34.832C483.976 38.8853 482.203 40.912 478.656 40.912C476.933 40.912 475.565 41.4693 474.552 42.584C473.64 43.5973 473.184 45.0667 473.184 46.992V116.456C473.184 118.381 473.64 119.901 474.552 121.016C475.565 122.029 476.933 122.536 478.656 122.536C480.379 122.536 481.696 123.093 482.608 124.208C483.52 125.221 483.976 126.691 483.976 128.616V130.288C483.976 134.341 481.949 136.368 477.896 136.368H454.792C450.739 136.368 448.712 134.341 448.712 130.288V128.616ZM555.79 136.368C552.243 136.368 550.065 134.544 549.254 130.896L545.454 112.656C544.643 109.008 542.465 107.184 538.918 107.184H515.966C512.419 107.184 510.241 109.008 509.43 112.656L505.63 130.896C504.819 134.544 502.641 136.368 499.094 136.368H497.27C495.446 136.368 494.027 135.912 493.014 135C492.102 134.088 491.646 132.872 491.646 131.352C491.646 130.643 491.697 130.085 491.798 129.68L511.102 32.704C511.913 29.056 514.091 27.232 517.638 27.232H536.79C540.337 27.232 542.515 29.056 543.326 32.704L563.086 129.68C563.187 130.085 563.238 130.693 563.238 131.504C563.238 134.747 561.363 136.368 557.614 136.368H555.79ZM527.214 41.064C524.985 41.064 523.465 42.888 522.654 46.536L514.598 86.816C514.497 87.2213 514.446 87.7787 514.446 88.488C514.446 90.008 514.902 91.224 515.814 92.136C516.827 93.048 518.246 93.504 520.07 93.504H534.662C538.411 93.504 540.286 91.8827 540.286 88.64C540.286 87.8293 540.235 87.2213 540.134 86.816L531.774 46.536C530.963 42.888 529.443 41.064 527.214 41.064Z" fill="black"/>
</g>
</svg>
